<?xml version="1.0" encoding="utf-8"?>
<!-- Generator: Adobe Illustrator 23.0.3, SVG Export Plug-In . SVG Version: 6.00 Build 0)  -->
<svg version="1.1" id="Capa_1" xmlns="http://www.w3.org/2000/svg" xmlns:xlink="http://www.w3.org/1999/xlink" x="0px" y="0px"
	 viewBox="0 0 1200 1200" enable-background="new 0 0 1200 1200" xml:space="preserve">
<g>
	<g>
		<g>
			<path fill="#ED9D34" d="M620.004,125.442c-6.753-5.528-12.685-12.057-17.543-19.307c-16.085-24.008,15.419-50.923,19.91-22.628
				c0.539,3.393,1.866,42.428-2.857,41.878C619.516,125.385,620.004,125.442,620.004,125.442z M547.896,134.324
				c-2.01-1.174-4.1-2.16-6.258-2.916c-11.573-4.055-30.638,0.804-19.313,15.809c8.291,10.986,24.317,19.569,38.815,17.951
				C582.366,162.8,557.431,139.893,547.896,134.324z M880.639,220.152c56.727-8.959,129.662,1.883,160.216,16.667
				c-6.447-94.633-225.709-35.932-237.532-25.626c-7.039,6.135,1.566,28.086,11.499,29.568
				C814.984,240.786,859.489,223.492,880.639,220.152z M553.88,384.018c22.856,24.211,42.66,61.297,6.53,82.592
				c-13.496,7.954-50.886,20.511-41.443,43.064c8.355,19.945,34.699,4.436,47.662-0.654c40.42-15.871,76.441,20.719,114.562,10.4
				c11.292-3.056,20.094-11.624,29.92-17.972c33.643-21.735,77.783-14.157,105.436,13.017c10.476,10.294,21.15,24.063,34.963,30.001
				c23.595,10.142,31.464-15.966,23.756-33.465c-19.767-44.869-82.772-68.368-128.253-65.753
				c-21.537,1.239-43.189,5.479-64.011,11.036c-9.005,2.403-61.429,14.57-44.211-11.197c7.213-10.795,31.886-10.874,43.273-13.591
				c10.356-2.472,20.542-13.403,15.589-22.829c-8.875-16.883-27.347-4.354-38.559-0.35
				C622.299,421.457,583.729,415.636,553.88,384.018z"/>
		</g>
	</g>
	<g>
		<g>
			<path fill="#FFC64F" d="M639.421,146.044c-15.643-11.477-26.127,31.598-26.71,32.717c-9.571,18.345-49.407-44.728-53.405-53.592
				c-12.706-28.177,8.435-42.625,31.472-20.25C603.092,116.877,615.071,124.46,639.421,146.044z M785.832,204.719
				c0.4,16.86-15.177,32.386-32.036,31.93c-8.903-0.241-17.199-4.231-25.638-7.076c-27.003-9.102-57.459-6.398-83.19,5.849
				s-46.701,33.642-59.951,58.87c-10.796,20.555-16.474,45.817-6.652,66.855c9.191,19.687,30.734,31.744,52.384,33.58
				c21.65,1.836,43.238-5.286,62.28-15.75c23.812-13.086,44.65-31.548,60.508-53.61c12.94-18.002,22.898-38.677,39.891-52.916
				c3.554-2.978,7.446-5.708,10.033-9.557c5.479-8.153,3.741-19.187,0.003-28.271c-3.738-9.084-9.276-17.563-11.082-27.218
				L785.832,204.719z"/>
		</g>
	</g>
	<path d="M578.877,307.764c28.436,15.535,50.249,42.123,60.814,72.588c0.477,1.377-0.187,2.904-1.484,3.41
		c-1.202,0.469-2.528-0.109-3.096-1.29c-13.341-27.691-36.465-49.131-62.656-59.373c-4.106-1.606-6.208-6.44-4.695-10.797
		c1.513-4.358,6.068-6.589,10.173-4.983c0.293,0.114,0.575,0.245,0.847,0.391L578.877,307.764z M608.898,255.88
		c-0.425-0.17-0.864-0.316-1.316-0.437c-6.279-1.677-12.686,2.219-14.31,8.703c-1.624,6.484,2.149,13.1,8.428,14.777
		c9.828,2.626,19.272,6.419,27.899,11.75c8.617,5.333,16.386,12.213,23.073,20.357c13.45,16.322,22.314,37.223,28.811,58.766
		l0.008,0.027c0.518,1.725,2.213,2.819,3.978,2.489c1.908-0.356,3.175-2.243,2.83-4.213c-1.998-11.412-4.613-22.806-8.328-34.005
		c-3.715-11.184-8.571-22.197-15.08-32.443c-6.48-10.241-14.682-19.638-24.265-27.373c-9.58-7.744-20.402-13.771-31.591-18.34
		L608.898,255.88z M672.897,226.359c-0.372-0.116-0.754-0.211-1.145-0.286c-5.53-1.048-10.862,2.585-11.91,8.115
		c-1.048,5.529,2.585,10.862,8.115,11.909c17.371,3.293,33.868,11.874,46.108,25.377c12.288,13.39,20.146,31.312,21.934,50.22
		c0.152,1.627,1.503,2.927,3.177,2.965c1.803,0.041,3.299-1.387,3.341-3.19c0.468-20.313-5.606-41.206-17.976-58.399
		c-6.153-8.593-13.836-16.22-22.617-22.416c-8.774-6.211-18.614-10.971-28.907-14.256L672.897,226.359z M653.697,161.528
		c-0.892,15.954-16.953,30.682-32.789,30.932c-4.041,0.064-8.06-0.272-11.684-1.345c-13.24-3.616-23.449-11.317-32.552-19.65
		c-0.437,0.233-0.908,0.404-1.419,0.452c-11.548,1.095-23.462,0.56-35.113-2.631c-17.509-4.795-52.492-27.252-38.066-49.545
		c6.495-10.652,20.163-7.749,29.86-4.239c2.675,0.968,5.288,2.088,7.819,3.35c-0.106-0.278-0.229-0.545-0.333-0.824
		c-1.131-3.324-2.241-6.662-2.787-10.317c-0.543-3.618-0.887-7.477,0.313-11.67c0.868-2.749,2.669-9.135,2.669-9.135
		c-2.258-3.523-8.849-18.424-1.253-19.48c3.911-0.543,9.874,7.096,13.231,9.088c3.94,2.339,7.888,1.502,12.284,2.63
		c22.9,5.88,34.792,28.471,53.402,40.965c0.313-8.098,0.483-16.155,0.36-24.177c-0.183-6.058-0.495-43.693-14.672-30.116
		c-5.992,5.738-13.121,19.105-13.121,19.105c-0.636,1.475-2.348,2.156-3.824,1.52c-1.167-0.503-1.836-1.685-1.75-2.885
		c0.988-13.734,11.07-37.591,28.871-32.973c13.114,3.555,15.379,18.963,16.549,30.606c1.806,17.972-5.295,43.469-4.837,43.748
		c3.686,2.25,7.507,4.564,11.286,7.285c5.672,4.156,11.501,9.402,14.968,16.794C652.878,152.717,653.944,157.107,653.697,161.528z
		 M604.758,124.055c-1.21-1.132-7.022-8.844-8.657-8.826c-6.898,0.279-13.249,3.003-18.284,7.524
		c-5.729,5.038-9.978,11.807-13.417,19.012c1.799,2.263,3.648,4.479,5.568,6.637c4.682-6.895,10.329-13.559,17.741-18.315
		c2.291-1.47,14.51-8.38,17.452-5.69C605.029,124.276,604.889,124.177,604.758,124.055z M575.396,100.944
		c-12.562,2.161-25.995,16.831-24.735,19.963c1.736,3.391,3.67,6.712,5.768,9.938c-1.22-1.876,7.957-9.23,9.187-10.308
		c4.768-4.179,10.019-7.801,16.069-9.846c1.493-0.505,7.487-2.95,8.712-1.658C586.048,104.332,582.3,99.756,575.396,100.944z
		 M554.02,86.683c-5.226,1.081-8.14,6.895-9.199,11.601c-0.624,2.774-0.233,6.164,0.662,9.642
		c6.733-7.128,15.31-13.221,25.402-13.838c1.232-0.075,2.452-0.031,3.664,0.063C572.965,92.979,566.16,84.173,554.02,86.683z
		 M568.861,163.643c-7.751-8.317-14.556-17.394-20.388-27.117c-1.585-2.673-3.089-5.404-4.501-8.195
		c-4.857-1.491-9.689-2.778-14.557-3.662c-3.893-0.707-14.582-3.834-16.776,1.431c-1.524,3.659,0.804,8.323,2.741,11.403
		c2.321,3.691,5.407,6.881,8.694,9.721c5.672,4.899,12.517,8.41,19.553,10.902C551.588,160.944,560.129,162.617,568.861,163.643z
		 M587.962,165.58c0.69-2.939,1.786-5.672,3.052-8.145c5.035-9.839,14.102-18.381,24.475-22.29c0.963-0.325,1.918-0.646,2.91-0.902
		c-1.765-1.168-3.547-2.354-5.346-3.61c-0.181-0.024-0.304,0.022-0.438,0.015c-9.653-0.446-18.23,4.65-24.141,12.01
		c-1.096,1.365-9.487,15.061-9.613,14.948C579.803,158.447,588.144,164.611,587.962,165.58z M629.074,141.65
		c-0.652-0.508-1.349-0.994-2.027-1.489c-2.724-0.364-5.75,0.416-8.595,1.891c-7.828,4.06-14.225,11.784-17.329,19.97
		c-1.519,4.007-1.939,8.133-1.003,11.154c0.075,0.242,0.102,0.486,0.148,0.729c13.333,7.454,30.028,7.955,38.773-6.645
		C645.05,157.318,636.729,147.584,629.074,141.65z M472.945,117.621c-11.861-9.068-17.346,13.605-20.382,20.775
		c-26.236,61.956-51.884,123.78-74.58,186.927c-36.912,102.705-71.531,235.533-72.332,238.481
		c-41.95-8.386-142.284-9.562-143.177-6.778c34.698-117.664,105.005-368.173,100-376.422c-8.349-13.762-19.247,2.779-22.914,14.034
		c-10.273,31.534-21.69,68.3-29.904,98.032C181.819,393.443,163.661,447.74,141.3,519.573c-7.549,24.25-14.094,48.805-21.792,73.009
		c-10.502,33.017-22.776,65.438-33.286,98.452c-3.167,9.947-9.624,22.669,1.062,30.336c7.486,5.371,18.483,3.29,22.544-5.275
		c5.332-11.248,8.66-23.37,12.811-35.078c11.919-33.627,22.863-67.568,33.497-101.619c1.699-5.442,122.597-1.311,144.542,6.024
		c-9.605,52.263-22.513,104.459-29.475,157.144c-2.152,16.268-9.912,48.079,4.182,61.082c5.077,4.683,13.538,2.464,17.952-2.138
		c5.268-5.492,4.312-13.512,5.136-20.476c6.448-54.456,14.004-109.133,25.701-162.747c1.864-8.533,3.469-15.558,4.821-21.09
		c-0.58,2.478,6.088,6.424,7.958,7.189c4.712,1.928,11.049,0.96,13.556-3.952c2.96-5.803-1.046-12.684-5.095-16.818
		c-1.499-1.53-11.649-7.71-11.484-9.128c5.441-46.873,88.678-290.843,115.867-365.63c6.608-18.176,11.485-39.042,20.113-56.296
		C472.819,143.778,482.873,125.218,472.945,117.621z M468.581,671.974c-19.742,26.771-59.572,53.32-90.894,28.33
		c-27.913-22.271-15.243-63.392-2.791-90.523c8.48-18.475,18.031-37.072,32.647-51.509c6.379-6.301,17.48-17.989,27.616-15.11
		c5.46,1.551,9.722,8.393,14.522,11.545c6.308,4.142,13.329,7.091,19.597,11.3c4.212,2.829,16.114,0.646,21.134,1.007
		c13.827,0.994,28.14,3.314,40.444,10.056c1.679,0.92,15.494,9.434,14.43,11.66c2.025-4.237,10.376-22.992,13.082-28.002
		c3.013-5.577,7.858-10.826,14.666-7.792c6.098,2.719,3.909,12.223,2.243,16.928c5.32-5.011,11.457-9.939,18.364-14.741
		c10.989-7.73,23.288-13.106,36.309-6.919c11.005,5.228,18.735,17.056,17.311,29.411c-2.547,22.106-9.34,43.365-12.229,65.39
		c-1.754,13.374-5.403,40.205,5.369,51.077c4.976,5.02,13.046,4.311,18.956,7.63c7.787,4.374-3.401,11.187-7.338,13.077
		c-5.932,2.847-11.976,3.568-18.369,1.838c-12.472-3.375-23.698-14.667-28.274-26.585c-6.195-16.132-4.92-34.693-2.309-51.427
		c2.256-14.444,7.953-28.677,11.175-42.961c0.813-3.604,5.873-19.176,1.92-21.783c-3.985-2.628-12.089,6.546-14.329,8.979
		c-14.919,16.209-28.753,33.728-39.823,52.811c-8.62,14.86-15.89,31.142-21.582,48.357c-2.456,9.004-9.378,10.011-12.234,10.011
		c-7.071,0-16.759-5.559-16.759-13.435c0-7.471,4.152-15.44,6.756-22.3c1.511-3.982,18.194-51.205,19.407-50.892
		c-9.261-6.398-15.209-9.743-24.458-11.902c-8.617-2.011-17.98-1.997-26.509-2.292c5.665,0.195,3.359,31.285,2.778,34.56
		C486.535,643.957,478.241,658.876,468.581,671.974z M461.767,607.577c0-4.569-0.142-11.139-2.415-15.217
		c-0.461-0.827-5.915-0.507-12.417-0.374c-15.188,0.31-29.888-5.734-28.428-7.966c-14.327,21.893-24.657,46.671-28.312,72.666
		c-0.884,6.291-3.018,29.687,7.747,29.686c21.859-0.004,47.48-32.261,56.363-49.623C458.93,627.712,461.767,617.918,461.767,607.577
		z M985.219,755.316c-0.008,0.124-0.033,0.246-0.052,0.369c12.965,1.431,26.094,3.846,38.822,9.59
		c14.456,6.525,30.937,22.22,28.935,39.555c-1.828,15.826-18.913,21.1-32.678,19.379c-16.522-2.065-32.721-11.734-41.541-25.985
		c-3.588-5.798-5.996-12.299-7.352-18.218c-29.059-0.609-109.505,11.707-112.267,17.394c-25.604,52.72-53.387,104.232-83.853,154.39
		c-26.607,43.528-57.084,83.388-90.599,118.489c-26.183,27.421-57.318,51.384-92.298,66.405
		c-30.958,13.294-69.916,21.516-99.509,0.482c-24.961-17.742-31.898-50.235-27.734-79.088
		c8.834-61.211,53.436-115.722,97.46-156.297c33.352-30.976,69.026-56.575,106.009-76.073c26.961-14.053,55.329-24.787,84.207-34.18
		c20.238-8.095,82.627-20.283,83.904-22.547c5.778-10.243,10.561-18.654,16.148-31.198c9.056-20.333,19.168-43.64,27.258-63.853
		c-13.966,17.789-39.138,56.512-67.388,43.575c-19.396-8.882-19.992-39.531-17.466-57.293c0.709-4.983,2.46-24.418,6.498-29.348
		c-14.939,13.651-25.065,21.217-36.399,31.177c-17.944,15.769-36.704,34.195-61.455,37.507
		c-19.908,2.664-37.649-6.427-42.001-27.009c-9.981-47.2,21.855-113.116,58.264-142.205c14.846-11.861,36.327-23.112,53.23-8.511
		c9.975,8.617,12.73,23.574,5.933,34.165c-38.064,59.306-70.02,63.87-81.215,61.324c-4.191,13.487-6.315,26.999-6.315,40.224
		c0,18.745,5.984,25.435,22.423,12.39c32.859-26.075,68.058-49.355,99.789-76.817c5.738-4.966,11.352-15.867,19.735-16.164
		c7.204-0.255,14.083,6.817,12.124,14.058c-6.082,22.486-17.335,43.18-22.174,66.126c-1.873,8.883-13.596,48.869,6.146,34.267
		c10.163-7.517,20.085-18.226,27.559-28.394c29.214-39.74,57.562-82.077,79.189-126.48c4.224-8.673,12.445-32.438,24.391-33.031
		c9.683-0.471,18.697,13.268,14.705,21.551c-33.253,68.987-95.117,235.69-99.516,236.404c31.363-5.095,63.308-8.426,95.112-6.825
		c10.471-118.957,78.807-193.207,111.004-300.967c14.929-49.966,24.652-108.29,0.003-157.373
		c-34.895-69.486-126.286-79.116-194.587-65.978c-39.006,7.503-67.988,19.748-67.898,20.719c1.145,12.359-7.758,32.292-21.364,34.49
		c-0.639,0.103-7.026,0.636-6.791-0.236c-4.997,18.575-12.918,36.031-23.256,52.244c-8.187,12.575-18.008,24.04-28.877,34.397
		c-10.636,10.134-22.536,17.842-34.908,25.429c-1.328,0.815,13.989,12.449-3.824,26.818c-15.69,12.657-38.879,15.474-56.771,24.026
		c-12.807,6.121-2.622,7.764,1.776,7.253c4.398-0.511,10.878-2.137,16.262-3.448c22.523-5.631,44.941-11.647,67.582-16.801
		c37.211-8.472,76.812-10.341,111.93,7.022c11.907,5.858,22.898,14.017,31.887,23.91c13.54,14.801,27.589,36.157,25.363,57.134
		c-2.565,24.957-25.803,43.133-50.497,35.395c-29.15-9.135-38.917-34.713-59.411-53.402c-11.268-10.276-27.902-12.602-42.204-8.342
		c-20.507,6.107-36.049,21.828-55.426,30.273c-22.303,9.721-44.2,3.948-64.821-7.155c-13.127-7.068-28.121-15.976-43.409-10.126
		c-15.571,5.959-25.29,21.046-39.948,28.554c-17.797,9.115-42.222,6.399-57.765-6.007c-16.3-12.755-16.536-36.419-3.458-51.564
		c10.827-12.538,28.471-13.491,39.924-24.539c14.953-14.424-1.21-34.838-7.198-49.324c-1.252-3.028-7.417-15.954-5.938-33.202
		c1.822-21.26,18.356-39.143,26.576-47.183c0.769-2.586,0.575-5.322,0.858-9.12c2.272-30.451,17.605-59.37,39.928-79.472
		c22.332-20.11,50.485-32.746,79.167-40.876c28.824-8.17,60.818-11.56,89.444-0.755c2.883,1.007,5.683,2.259,8.427,3.634
		c0.334,0.167,16.888-12.923,18.932-13.7c12.314-4.684,21.054,5.632,25.78,14.991c76.752-25.129,122.684-30.23,158.499-30.622
		c33.424-0.366,68.492,5.563,95.627,26.373c4.713,3.615,5.603,10.362,1.99,15.073c-7.533,9.821-16.503,0.185-23.694-4.096
		c-31.933-19.013-104.293-31.696-225.267,6.125c2.513,5.33,5.857,14.64,6.96,14.448c23.59-7.674,47.826-14.118,72.656-17.862
		c53.673-8.094,114.222-6.71,161.497,22.428c64.498,39.754,94.067,99.548,55.204,225.832
		C1073.268,549.837,990.26,672.459,985.219,755.316z M695.675,410.718c-3.408-4.677-10.339-3.717-14.85-2.077
		c-21.008,7.639-42.779,13.224-65.308,10.602c-32.3-3.804-59.714-24.486-72.194-54.527c-2.881-6.935-4.839-14.136-6.067-21.438
		c-12.9,14.867-20.388,32.144-12.868,51.641c3.759,9.747,11.139,19.143,16.096,31.589c2.49,6.182,3.991,13.492,3.382,20.878
		c-1.852,23.555-24.146,29.921-41.037,40.661c-9.348,5.943-15.263,19.899-4.56,27.948c3.115,2.305,7.34,4.02,11.839,4.92
		c23.338,4.356,35.789-14.887,52.514-26.695c18.821-13.289,42.071-12.444,62.244-2.729c13.619,6.559,27.423,16.663,43.264,15.701
		c8.459-0.514,17.226-4.726,26.469-10.742c9.284-5.94,18.885-13.542,30.903-19.726c12.789-6.582,27.01-9.432,41.349-8.151
		c14.158,1.162,28.764,6.78,39.741,16.728c11.902,10.786,41.907,69.034,61.953,44.281c4.155-4.989,5.175-12.729,2.076-19.754
		c-18.477-41.879-59.757-57.969-103.113-56.733c-34.389,0.98-68.923,12.59-102.683,18.498c-14.593,2.572-35.01,8.359-46.703-4.124
		c-14.466-15.957,5.424-29.224,19.085-34.691c16.405-6.566,34.112-9.326,50.331-16.258
		C690.61,415.211,693.634,413.419,695.675,410.718z M631.088,456.764c0.034-0.021,0.076-0.115,0.115-0.25
		C631.056,456.731,631.003,456.857,631.088,456.764z M777.992,196.434c-3.107-3.289-12.677,8.059-14.256,10.117
		c6.859,4.97,12.98,11.011,17.95,17.794c2.104,2.872,1.482,6.905-1.389,9.01c-5.129,3.759-8.879-1.454-11.936-4.942
		c-7.671-8.751-17.521-15.223-28.458-19.145c-25.635-9.191-55.035-5.336-80.569,2.182c-26.365,7.851-52.418,19.27-72.952,37.99
		c-29.371,26.776-44.109,71.251-28.076,109.01c5.107,12.027,13.126,22.732,23.451,30.463c21.416,16.611,50.214,17.607,75.454,10.602
		c24.585-6.823,47.236-17.85,66.811-34.379c33.406-28.209,55.739-69.484,60.807-112.943c0.938-8.048,13.215-4.67,12.355-2.464
		c0.099-0.252-0.003-0.863,0.255-0.774C800.859,250.125,791.003,210.208,777.992,196.434z M705.806,595.862
		c6.63-1.639,12.67-4.997,18.315-10.159c9.234-8.444,35.911-31.983,33.25-46.395c-15.021-2.853-31.29,20.062-38.138,30.993
		C714.652,577.606,710.144,586.186,705.806,595.862z M825.992,799.275c0,0-30.882,4.6-79.297,21.909
		c-68.797,24.596-135.005,67.012-184.624,119.8c-27.366,28.676-47.368,57.759-59.482,86.477c-8.931,21.171-15.578,44.544-9.32,67.38
		c20.47,74.703,112.449,11.771,144.997-17.07c71.478-64.528,120.463-151.419,163.513-236.345
		C808.551,827.484,823.408,804.266,825.992,799.275z M986.155,775.949c1.476,16.262,16.753,29.075,30.951,33.011
		c10.926,3.029,24.491,1.259,18.783-13.118c-3.158-7.953-10.271-12.554-18.577-15.306
		C1007.005,777.12,999.459,774.963,986.155,775.949z"/>
</g>
</svg>
