<?xml version="1.0" encoding="utf-8"?>
<!-- Generator: Adobe Illustrator 23.0.3, SVG Export Plug-In . SVG Version: 6.00 Build 0)  -->
<svg version="1.1" id="Capa_1" xmlns="http://www.w3.org/2000/svg" xmlns:xlink="http://www.w3.org/1999/xlink" x="0px" y="0px"
	 viewBox="0 0 1200 1200" enable-background="new 0 0 1200 1200" xml:space="preserve">
<path fill="#E5B93C" d="M917.162,808.677c-5.933-75.569-40.896-102.817-69.181-112.372c-3.498-1.18-6.033-4.003-6.78-7.551
	c-0.346-1.636-0.745-5.806,2.988-9.221l1.609-1.474c6.325-5.782,9.583-14.002,8.938-22.551l-2.143-28.485
	c-0.314-4.19-1.272-16.94-65.363-30.21c-32.974-6.828-90.363-14.967-176.513-14.967c-9.773,0-25.014,0.684-38.461,1.285
	c-2.782,0.125-5.447,0.244-7.937,0.35c-1.643-18.705-2.422-37.464-2.971-56.229c-0.336-11.475-2.83-15.434,5.996-19.31
	c6.877-3.02,17.696-1.704,25.374-4.423c11.75-4.162,22.551-13.142,33.013-27.449l64.6-88.334
	c23.828-32.583,22.239-76.078-1.031-106.684l124.72-163.198c7.059-9.335,9.951-21.3,7.932-32.828
	c-2.019-11.528-8.803-21.799-18.615-28.181c-17.99-11.702-41.897-8.078-55.619,8.424c-0.083,0.098-0.163,0.2-0.242,0.305
	L622.288,230.31c-37.32-15.972-82.144-4.792-107.099,29.337l-65.206,89.161c-14.274,19.512-27.758,37.942-23.278,60.793
	c4.24,21.625,24.726,43.187,64.435,67.798c14.235,8.824,18.327,29.553,19.972,44.88c0.745,6.946,3.352,60.195,2.92,60.229
	c-55.511,4.364-93.002,12.55-114.979,18.81c-48.366,13.778-47.837,24.55-47.61,29.15l1.758,35.718
	c0.468,9.492,5.669,17.979,13.935,22.718c4.672,2.677,5.018,7.111,4.951,8.895c-0.144,3.801-2.304,7.057-5.776,8.71
	c-39.168,18.648-101.584,67.584-79.543,185.795c26.737,143.362,106.581,221.696,109.967,224.961c0.756,0.728,1.631,1.316,2.592,1.74
	c2.868,1.265,71.755,30.995,201.559,30.995c129.967,0,209.986-38.066,213.329-39.687c1.481-0.719,2.736-1.834,3.622-3.221
	C822.301,1100.114,927.065,934.742,917.162,808.677z M573.058,600.954c12.604-0.564,28.287-1.268,37.661-1.268
	c113.889,0,181.598,14.569,209.993,24.535c-28.587,5.628-91.806,14.126-212.87,14.126c-12.48,0-24.773-0.082-36.523-0.236
	c-2.119-11.965-3.84-24.405-5.226-36.848C568.301,601.168,570.639,601.063,573.058,600.954z M833.888,772.087
	c0.241-0.195,0.447-0.389,0.675-0.584c53.734,84.954-42.207,268.983-55.456,294.937c-149.582,57.461-312.822,12.917-333.809,6.747
	c-13.891-15.71-113.342-126.653-101.954-253.913c2.79-31.193,11.161-42.969,16.412-46.38
	c21.173,12.161,148.199,18.908,229.823,20.488c15.05,0.292,32.166,0.503,50.228,0.503
	C717.178,793.887,811.738,790.021,833.888,772.087z M822.663,758.22c-12.081,9.783-79.853,20.205-231.09,17.356
	c-109.462-2.052-192.113-9.899-216.262-15.784c17.574-16.043,79.567-18.299,122.924-14.263c2.947,0.279,5.798-0.913,7.679-3.167
	c8.422-10.097,19.841-55.895,21.743-64.494c0.015-0.076,0.03-0.15,0.046-0.227l2.675-13.799c0.393-2.32,0.724-5.301,1.001-8.803
	l25.149,0.59c6.653,30.928,16.559,58.445,31.302,73.715c15.194,15.734,34.312,13.911,54.239,13.809
	c26.232-0.133,52.477,0.192,78.691,1.219c75.645,2.964,96.727,10.265,102.401,13.431
	C823.009,757.937,822.843,758.074,822.663,758.22z M761.558,76.535c7.95-9.426,21.699-11.471,32.055-4.733
	c5.759,3.744,9.583,9.533,10.768,16.3c1.185,6.765-0.446,13.51-4.561,18.953L676.939,267.85c-1.906-1.659-3.876-3.266-5.951-4.784
	l-31.13-22.766c-0.595-0.434-1.203-0.833-1.804-1.25L761.558,76.535z M529.59,270.179c23.232-31.763,67.97-38.704,99.735-15.479
	l31.13,22.766c3.944,2.885,7.504,6.103,10.673,9.585c0.044,0.05,0.089,0.098,0.134,0.148c22.224,24.562,24.975,62.24,4.672,90.002
	l-64.6,88.334c-5.981,8.177-11.836,14.026-17.74,17.765c-4.569-14.889-18.703-49.642-56.485-77.042
	c-32.184-23.338-63.269-32.381-80.664-35.837c2.475-3.6,5.158-7.279,7.938-11.079L529.59,270.179z M486.638,448.122
	c-9.118-8.28-15.644-22.226,2.118-13.261c9.646,4.869,19.237,9.992,27.842,16.577c9.995,7.649,18.685,17.477,23.002,29.3
	c5.073,13.895,3.782,156.737,13.481,156.964c-0.001,0-20.856-0.488-20.856-0.488c1.104-43.054-1.969-115.945-6.682-134.143
	c-0.425-1.64-0.937-3.35-1.57-5.251C516.384,475.114,499.907,460.163,486.638,448.122z M514.45,600.365
	c0.22,13.2,0.224,25.809-0.03,36.342c-69.661-2.451-110.544-7.519-131.9-11.127C403.962,617.107,448.483,605.653,514.45,600.365z
	 M804.178,1095.281c-13.719,6.057-89.179,36.877-203.293,36.877c-65.892,0-140.46-7.24-192.893-28.875
	c-9.772-10.064-79.742-85.857-103.684-214.251c-7.527-40.366-6.818-84.87,16.019-120.478c8.06-12.568,18.516-23.388,30.529-32.221
	c13.026-9.578,34.026-14.65,38.294-32.075c2.203-8.994-0.574-19.044-7.081-25.631c-2.954-2.99-6.633-5.339-8.897-8.881
	c-5.16-8.075-1.186-18.83-3.205-28.198c47.501,7.717,95.562,11.988,143.68,12.77c-3.466,22.808-9.166,45.276-16.992,66.978
	c-0.567,1.574-1.218,3.241-2.586,4.204c-1.327,0.935-3.055,1.013-4.678,1.047c-24.938,0.519-50.022-1.661-74.754,1.58
	c-51.53,6.751-84.489,38.45-89.064,89.558c-6.745,75.379,23.465,146.833,49.995,193.503c28.573,50.263,56.975,74.543,58.227,75.891
	c1.043,1.122,2.357,1.956,3.814,2.424c1.873,0.599,41.682,15.343,107.518,21.635c17.517,1.673,37.511,2.844,59.186,2.844
	c53.626,0,122.488-7.729,184.444-32.151c1.975-0.78,3.609-2.237,4.606-4.112c5.249-9.875,129.003-234.971,47.136-328.046
	c-0.257-0.292-0.551-0.527-0.836-0.778c-6.734-9.671-29.252-18.578-113.848-22.174c-49.437-2.1-98.426-1.289-101.319-1.235
	l-6.503-0.061c-6.251-0.102-11.92-2.875-17.328-8.474c-11.509-11.919-19.822-34.399-25.778-60.955
	c10.709,0.125,21.753,0.192,32.957,0.192c140.478,0,204.273-11.175,227.749-16.904c3.55-0.867-2.862,26.611-6.548,30.077
	c-6.785,6.381-19.746,7.006-28.653,8.768c-32.99,6.524-66.719,10.353-100.375,10.004c-0.028,0-0.059,0-0.089,0
	c-4.885,0-8.871,3.936-8.919,8.834c-0.048,4.927,3.907,8.958,8.834,9.008c1.368,0.013,2.725,0.02,4.088,0.02
	c51.517,0,98.217-9.489,119.662-14.608c0.06,0.35,0.077,0.699,0.151,1.048c2.063,9.788,8.991,17.554,18.53,20.776
	c33.264,11.234,53.009,44.729,57.104,96.865C908.215,922.61,816.586,1075.209,804.178,1095.281z M506.998,346.556
	c2.143-4.436,7.475-6.292,11.916-4.149c26.088,12.615,72.959,39.807,93.752,80.199c2.254,4.382,0.531,9.759-3.848,12.016
	c-1.307,0.673-2.703,0.991-4.077,0.991c-3.234,0-6.355-1.766-7.939-4.839c-18.417-35.782-61.571-60.658-85.655-72.302
	C506.711,356.326,504.855,350.992,506.998,346.556z M526.861,309.897c1.512-4.687,6.534-7.257,11.221-5.754
	c3.426,1.102,84.158,27.617,106.204,80.892c1.884,4.552-0.281,9.77-4.833,11.654c-1.115,0.462-2.272,0.68-3.406,0.68
	c-3.502,0-6.826-2.076-8.248-5.512c-18.879-45.622-94.427-70.485-95.188-70.731C527.924,319.61,525.35,314.586,526.861,309.897z
	 M562.005,271.079c1.564-4.667,6.606-7.209,11.288-5.626c3.291,1.1,80.857,27.49,100.123,72.056
	c1.954,4.521-0.126,9.772-4.65,11.728c-1.152,0.499-2.354,0.734-3.535,0.734c-3.452,0-6.736-2.015-8.193-5.384
	c-16.106-37.256-88.678-61.972-89.409-62.216C562.959,280.806,560.441,275.748,562.005,271.079z M524.557,826.776
	c0.218,4.922-3.596,9.089-8.518,9.306c-6.577,0.29-13.005,0.425-19.253,0.425c-72.332,0-121.741-17.935-123.98-18.763
	c-4.622-1.71-6.983-6.841-5.275-11.46c1.708-4.622,6.843-6.985,11.458-5.275c0.804,0.292,57.553,20.728,136.262,17.249
	C520.238,818.012,524.341,821.854,524.557,826.776z M461.603,1026.636c3.389,3.576,3.236,9.224-0.34,12.61
	c-1.725,1.636-3.931,2.446-6.133,2.446c-2.365,0-4.724-0.934-6.477-2.786c-47.75-50.4-70.348-147.663-71.287-151.777
	c-1.095-4.802,1.908-9.583,6.71-10.681c4.813-1.096,9.585,1.908,10.683,6.71C394.979,884.121,417.234,979.801,461.603,1026.636z
	 M744.022,1058.353c-3.507-3.463-3.541-9.11-0.081-12.617c49.42-50.049,64.076-229.663,64.219-231.471
	c0.383-4.911,4.633-8.607,9.592-8.193c4.911,0.385,8.581,4.68,8.193,9.592c-0.601,7.649-15.357,187.971-69.307,242.609
	c-1.747,1.766-4.047,2.653-6.349,2.653C748.025,1060.925,745.76,1060.069,744.022,1058.353z"/>
</svg>
