<?xml version="1.0" encoding="utf-8"?>
<!-- Generator: Adobe Illustrator 23.0.3, SVG Export Plug-In . SVG Version: 6.00 Build 0)  -->
<svg version="1.1" id="Capa_1" xmlns="http://www.w3.org/2000/svg" xmlns:xlink="http://www.w3.org/1999/xlink" x="0px" y="0px"
	 viewBox="0 0 1200 1200" enable-background="new 0 0 1200 1200" xml:space="preserve">
<g>
	<path fill="#ECA000" d="M724.792,749.215c78.174,3.064,99.966,10.607,105.832,13.88c-0.158,0.137-0.329,0.281-0.513,0.432
		c-12.484,10.109-82.523,20.864-238.836,17.938c-113.135-2.123-198.557-10.231-223.516-16.315
		c18.161-16.578,82.235-18.911,127.048-14.739c3.07,0.304,5.997-0.943,7.939-3.275c8.702-10.438,20.507-57.769,22.469-66.654
		c0.016-0.079,0.032-0.158,0.047-0.234l2.762-14.262c0.405-2.397,0.75-5.479,1.035-9.1l25.992,0.61
		c6.875,31.966,17.114,60.406,32.351,76.186c9.038,9.36,19.424,14.201,30.935,14.391l6.913,0.065
		c0.095,0.002,0.178,0.002,0.261-0.002C625.999,748.125,674.512,747.245,724.792,749.215z M436.992,1087.437
		c-14.424-16.312-114.036-129.337-102.268-260.81c2.884-32.235,11.534-44.407,16.959-47.934
		c21.88,12.57,153.171,19.542,237.535,21.176c15.554,0.302,33.236,0.518,51.903,0.518c79.964,0,177.702-3.996,200.592-22.528
		c0.25-0.203,0.461-0.403,0.7-0.606c55.534,87.803-45.512,281.004-59.204,307.828
		C640.868,1131.083,439.979,1087.768,436.992,1087.437z M454.17,1035.286c-42.105-49.362-64.281-149.747-64.5-150.755
		c-1.08-4.975-5.988-8.137-10.967-7.052c-4.975,1.08-8.133,5.988-7.055,10.962c0.932,4.299,23.363,105.904,68.493,158.811
		c1.823,2.138,4.412,3.237,7.019,3.237c2.116,0,4.243-0.725,5.979-2.206C457.013,1044.979,457.474,1039.16,454.17,1035.286z
		 M517.549,830.773c-0.225-5.085-4.443-9.051-9.618-8.804c-81.506,3.606-140.248-17.614-140.833-17.83
		c-4.765-1.749-10.071,0.68-11.838,5.454c-1.765,4.777,0.675,10.08,5.452,11.845c2.314,0.855,53.38,19.392,128.144,19.392
		c6.454,0,13.098-0.14,19.89-0.439C513.832,840.166,517.774,835.86,517.549,830.773z M551.491,638.966
		c-11.46-66.814-5.258-133.294-5.155-138.912c0.002-0.248,0.013-0.495,0.036-0.741c-0.423-4.995-22.427-85.512-77.925-71.205
		c1.994,6.454,9.128,13.213,19.521,22.645c13.684,12.416,30.715,27.869,38.557,51.338c0.002,0.009,0.007,0.02,0.009,0.029
		c0.646,1.934,1.173,3.698,1.614,5.396c4.871,18.814,2.929,86.448,1.785,130.943L551.491,638.966z"/>
	<path fill="#EDCD69" d="M511.534,637.937c-71.996-2.535-114.249-7.77-136.32-11.5c22.163-8.756,68.176-20.594,136.351-26.057
		C511.79,614.02,511.795,627.051,511.534,637.937z M572.117,600.987c-2.492,0.113-4.9,0.218-7.178,0.317
		c1.434,12.862,3.212,25.72,5.402,38.087c12.297,0.158,25.006,0.243,37.749,0.243c125.123,0,190.463-8.783,220.009-14.6
		c-29.348-10.301-99.325-25.357-217.036-25.357C601.37,599.677,585.15,600.404,572.117,600.987z M677.813,251.767
		c2.145,1.569,4.18,3.23,6.147,4.943L810.965,90.524c4.252-5.625,5.936-12.597,4.711-19.588
		c-1.225-6.994-5.177-12.977-11.127-16.846c-10.699-6.96-24.909-4.846-33.132,4.891L643.773,226.945
		c0.621,0.432,1.252,0.846,1.866,1.294L677.813,251.767z M539.443,399.762c-33.263-24.119-65.389-33.468-83.365-37.04
		c2.557-3.721,5.33-7.523,8.205-11.451l67.392-92.153c11.577-15.829,28.709-26.215,48.241-29.247
		c19.541-3.034,39.01,1.677,54.839,13.252l32.173,23.527c4.074,2.98,7.75,6.303,11.023,9.9c0.049,0.059,0.101,0.113,0.153,0.169
		c22.962,25.387,25.803,64.32,4.822,93.011l-66.766,91.295c-6.181,8.452-12.232,14.499-18.334,18.361
		C593.102,464.001,578.493,428.082,539.443,399.762z M569.617,271.276c0.754,0.252,72.671,22.634,89.317,61.137
		c1.506,3.482,4.9,5.564,8.468,5.564c1.22,0,2.463-0.243,3.653-0.759c4.675-2.021,6.825-7.448,4.806-12.122
		c-19.912-46.057-96.988-70.168-100.389-71.307c-4.828-1.621-10.048,0.988-11.667,5.814
		C562.189,264.431,564.791,269.655,569.617,271.276z M530.335,308.163c0.786,0.254,76.185,21.639,95.696,68.792
		c1.47,3.552,4.905,5.697,8.524,5.697c1.173,0,2.368-0.225,3.521-0.702c4.705-1.947,6.942-7.34,4.995-12.045
		c-22.784-55.064-103.541-78.154-107.082-79.293c-4.835-1.555-10.037,1.103-11.597,5.947
		C522.83,301.406,525.491,306.599,530.335,308.163z M508.152,346.761c24.894,12.041,67.761,29.069,86.791,66.039
		c1.636,3.176,4.862,5.002,8.205,5.002c1.42,0,2.863-0.329,4.214-1.024c4.527-2.332,6.307-7.89,3.977-12.419
		c-21.486-41.736-68.194-61.157-95.16-74.197c-4.581-2.226-10.098-0.299-12.313,4.286
		C501.648,339.031,503.566,344.546,508.152,346.761z M909.4,817.12c-4.232-53.886-24.639-88.504-59.016-100.113
		c-9.862-3.331-17.022-11.359-19.154-21.477c-0.077-0.36-0.095-0.72-0.155-1.08c-22.163,5.292-70.424,15.097-123.665,15.097
		c-1.411,0-2.818-0.007-4.239-0.02c-5.092-0.052-9.177-4.218-9.128-9.312c0.049-5.089,4.335-9.202,9.312-9.128
		c60.752,0.651,116.977-12.815,131.647-16.633c1.348-2.123,2.985-4.097,4.912-5.859l1.661-1.522
		c2.337-2.138,3.539-5.168,3.302-8.322l-1.366-18.156c-24.234,5.918-90.161,17.479-235.422,17.479
		c-11.453,0-22.875-0.07-34.062-0.198c6.156,27.446,14.746,50.679,26.643,62.998c5.589,5.787,11.446,8.651,17.907,8.759l6.724,0.063
		c2.989-0.054,53.623-0.891,104.716,1.276c87.431,3.716,110.706,12.921,117.666,22.915c0.295,0.259,0.599,0.502,0.864,0.804
		c84.612,96.196-45.638,328.957-51.063,339.163c-1.031,1.938-2.719,3.444-4.761,4.25c-64.034,25.24-133.39,26.019-188.814,26.019
		c-22.4,0-43.061-1.209-61.166-2.94c-68.043-6.501-118.071-20.018-120.009-20.637c-1.506-0.484-2.863-1.346-3.941-2.505
		c-1.294-1.393-21.236-21.116-50.769-73.065c-27.419-48.234-58.64-122.084-51.669-199.996c1.253-14.001,3.58-28.509,9.431-41.411
		c11.336-25.002,38.79-40.783,64.286-47.786c15.651-4.299,31.992-5.256,48.147-5.324c5.337-0.022,51.026,3.93,52.319,0.743
		c9.758-24.05,16.515-49.317,20.069-75.025c-49.75-0.889-99.437-5.297-148.567-13.18c3.094,10.305-2.747,23.534,4.908,31.093
		c2.566,2.535,6.137,3.716,9.59,4.752c31.703,9.51,65.051,13.506,98.104,11.757c7.076-0.374,16.63,0.885,17.473,7.921
		c0.888,7.408-9.048,10.654-16.503,10.915c-31.091,1.083-92.574-9.339-92.574-9.339s-13.817,24.914-16.633,26.627
		c-6.098,3.71-12.652,6.53-18.64,10.505c-13.143,8.727-24.783,19.678-33.883,32.592c-26.329,37.369-27.609,85.436-19.503,128.903
		c24.745,132.698,97.06,211.032,107.16,221.434c10.881,4.34,79.96,29.844,199.358,29.844c117.634,0,195.89-31.858,210.116-38.116
		C823.847,1091.121,918.534,933.419,909.4,817.12z M456.077,415.29c0.797-4.743,10.761-8.761,15.732-8.477
		c64.317,3.665,87.878,73.123,88.425,76.137c3.604,0.768,17.192,0.513,24.701-0.779c-3.68-12.164-16.452-45.294-51.791-70.92
		c-35.095-25.452-68.968-32.912-82.364-34.971c-2.856,6.701-4.124,13.276-2.816,19.948
		C448.805,400.503,453.167,410.709,456.077,415.29z"/>
</g>
</svg>
